<svg width="50" height="50" viewBox="0 0 50 50" fill="none" xmlns="http://www.w3.org/2000/svg">
<path d="M26.7678 27.7148L26.2502 28.2321V20C26.2502 19.31 25.6913 18.75 25.0002 18.75C24.309 18.75 23.7502 19.31 23.7502 20V28.2321L23.2326 27.7146C22.7438 27.2257 21.9539 27.2257 21.465 27.7146C20.9762 28.2034 20.9762 28.9933 21.465 29.4821L24.1152 32.1323C24.5803 32.6161 25.4202 32.6161 25.8852 32.1323L28.5354 29.4821C29.0242 28.9933 29.0242 28.2034 28.5354 27.7146C28.0465 27.226 27.2564 27.226 26.7678 27.7148H26.7678Z" fill="#43EE94"/>
<path d="M31.25 12.6478H31.2224C30.4274 9.67767 27.6774 7.50024 24.4788 7.50024C21.2162 7.50024 18.4738 9.6791 17.7112 12.7179C14.0661 13.2201 11.25 16.3278 11.25 20.0736C11.25 24.1673 14.6139 27.5 18.75 27.5H20.1149C20.2324 27.2601 20.3811 27.0302 20.5812 26.8312C21.1063 26.3061 21.8125 26.0662 22.5 26.1049V20C22.5 18.6214 23.6213 17.5 25 17.5C26.3786 17.5 27.5 18.6214 27.5 20V26.1049C28.19 26.0662 28.8937 26.3061 29.4187 26.8312C29.6188 27.0313 29.7661 27.2601 29.885 27.5H31.2499C35.386 27.5 38.7499 24.1675 38.7499 20.0736C38.7499 15.9797 35.386 12.6479 31.2499 12.6479L31.25 12.6478Z" fill="#43EE94"/>
</svg>
