<svg width="35" height="35" viewBox="0 0 35 35" fill="none" xmlns="http://www.w3.org/2000/svg">
<path fill-rule="evenodd" clip-rule="evenodd" d="M2 2.60518C2 2.27078 2.26828 2 2.60017 2H15.8002C16.1317 2 16.4003 2.26953 16.4003 2.60518V24.802C16.4003 25.4637 15.9873 25.6562 15.4813 25.2343L9.66169 20.3848C9.40723 20.1722 8.99288 20.1735 8.73926 20.3848L2.91968 25.2343C2.41201 25.6574 2.0006 25.4653 2.0006 24.802L2 2.60518Z" fill="#BFC4C7"/>
<path fill-rule="evenodd" clip-rule="evenodd" d="M18 10.6052C18 10.2708 18.2683 10 18.6002 10H31.8002C32.1317 10 32.4003 10.2695 32.4003 10.6052V32.802C32.4003 33.4637 31.9873 33.6562 31.4813 33.2343L25.6617 28.3848C25.4072 28.1722 24.9929 28.1735 24.7393 28.3848L18.9197 33.2343C18.412 33.6574 18.0006 33.4653 18.0006 32.802L18 10.6052Z" fill="#43EE94"/>
</svg>
