<svg width="35" height="35" viewBox="0 0 35 35" fill="none" xmlns="http://www.w3.org/2000/svg">
<g clip-path="url(#clip0_305_181)">
<path d="M17.5 19.6C19.3365 19.6 20.8977 20.7787 21.4684 22.4209L21.5367 22.4094L21.7 22.4H30.1C30.8733 22.4 31.5 23.0268 31.5 23.8C31.5 24.518 30.9596 25.1098 30.2633 25.1906L30.1 25.2H21.7C21.6209 25.2 21.5432 25.1933 21.4676 25.1808C20.8977 26.8213 19.3366 28 17.5 28C15.6635 28 14.1024 26.8213 13.5317 25.1791L13.4633 25.1906L13.3 25.2H4.90001C4.12676 25.2 3.50001 24.5732 3.50001 23.8C3.50001 23.082 4.04046 22.4902 4.73671 22.4094L4.89999 22.4H13.3C13.3791 22.4 13.4568 22.4067 13.5324 22.4192C14.1023 20.7787 15.6635 19.6 17.5 19.6ZM17.5 22.4C16.7268 22.4 16.1 23.0268 16.1 23.8C16.1 24.5733 16.7268 25.2 17.5 25.2C18.2733 25.2 18.9 24.5733 18.9 23.8C18.9 23.0268 18.2733 22.4 17.5 22.4ZM7.70001 9.8C9.53651 9.8 11.0977 10.9787 11.6684 12.6209L11.7367 12.6094L11.9 12.6H30.1C30.8733 12.6 31.5 13.2268 31.5 14C31.5 14.718 30.9596 15.3098 30.2633 15.3906L30.1 15.4H11.9C11.8209 15.4 11.7432 15.3933 11.6676 15.3808C11.0977 17.0213 9.53655 18.2 7.7 18.2C5.38045 18.2 3.5 16.3195 3.5 14C3.5 11.6804 5.38045 9.79999 7.7 9.79999L7.70001 9.8ZM7.70001 12.6C6.92676 12.6 6.30001 13.2268 6.30001 14C6.30001 14.7733 6.92676 15.4 7.70001 15.4C8.47326 15.4 9.10001 14.7733 9.10001 14C9.10001 13.2268 8.47326 12.6 7.70001 12.6ZM23.1 0C24.9365 0 26.4977 1.1787 27.0684 2.8209L27.1367 2.80938L27.3 2.8H30.1C30.8733 2.8 31.5 3.42675 31.5 4.2C31.5 4.91795 30.9596 5.50975 30.2633 5.5906L30.1 5.59998H27.3C27.2209 5.59998 27.1432 5.59334 27.0676 5.58084C26.4977 7.22129 24.9366 8.39999 23.1 8.39999C21.2635 8.39999 19.7024 7.22129 19.1317 5.57909L19.0633 5.59061L18.9 5.59998H4.90001C4.12676 5.59998 3.50001 4.97323 3.50001 4.19998C3.50001 3.48203 4.04046 2.89023 4.73671 2.80938L4.89999 2.80001H18.9C18.9791 2.80001 19.0568 2.80665 19.1324 2.81915C19.7023 1.1787 21.2635 0 23.1 0V0ZM23.1 2.8C22.3268 2.8 21.7 3.42675 21.7 4.2C21.7 4.97325 22.3268 5.6 23.1 5.6C23.8733 5.6 24.5 4.97325 24.5 4.2C24.5 3.42675 23.8733 2.8 23.1 2.8Z" fill="#2F2F2F"/>
</g>
<defs>
<clipPath id="clip0_305_181">
<rect width="35" height="35" fill="white"/>
</clipPath>
</defs>
</svg>
